<?xml version="1.0" encoding="UTF-8" standalone="no"?>
<svg
   xmlns:dc="http://purl.org/dc/elements/1.1/"
   xmlns:cc="http://creativecommons.org/ns#"
   xmlns:rdf="http://www.w3.org/1999/02/22-rdf-syntax-ns#"
   xmlns:svg="http://www.w3.org/2000/svg"
   xmlns="http://www.w3.org/2000/svg"
   xmlns:sodipodi="http://sodipodi.sourceforge.net/DTD/sodipodi-0.dtd"
   xmlns:inkscape="http://www.inkscape.org/namespaces/inkscape"
   class="w-[2px] h-[2px] text-gray-800 dark:text-white"
   aria-hidden="true"
   viewBox="0 0 20 18"
   version="1.1"
   id="svg68"
   sodipodi:docname="config.svg"
   width="20"
   height="18"
   style="fill:none"
   inkscape:version="0.92.4 (5da689c313, 2019-01-14)">
  <metadata
     id="metadata74">
    <rdf:RDF>
      <cc:Work
         rdf:about="">
        <dc:format>image/svg+xml</dc:format>
        <dc:type
           rdf:resource="http://purl.org/dc/dcmitype/StillImage" />
        <dc:title></dc:title>
      </cc:Work>
    </rdf:RDF>
  </metadata>
  <defs
     id="defs72" />
  <sodipodi:namedview
     pagecolor="#ffffff"
     bordercolor="#666666"
     borderopacity="1"
     objecttolerance="10"
     gridtolerance="10"
     guidetolerance="10"
     inkscape:pageopacity="0"
     inkscape:pageshadow="2"
     inkscape:window-width="1920"
     inkscape:window-height="981"
     id="namedview70"
     showgrid="false"
     inkscape:zoom="11.313709"
     inkscape:cx="4.8161365"
     inkscape:cy="15.87857"
     inkscape:window-x="1920"
     inkscape:window-y="28"
     inkscape:window-maximized="1"
     inkscape:current-layer="svg68" />
  <g
     id="g79"
     transform="matrix(1.0195422,0,0,1.0195422,-0.45030755,16.085814)">
    <path
       style="stroke:currentColor;stroke-width:1;stroke-linecap:round;stroke-linejoin:round"
       inkscape:connector-curvature="0"
       id="path62"
       d="m 6.5,-8.2 c -0.69223,0 -1.36892,-0.20527 -1.94449,-0.58985 -0.57558,-0.38459 -1.02418,-0.93122 -1.28909,-1.57076 -0.2649,-0.63954 -0.33422,-1.34327 -0.19917,-2.0222 0.13505,-0.67894 0.46839,-1.30258 0.95788,-1.79206 0.48948,-0.48949 1.11312,-0.82283 1.79206,-0.95788 0.67893,-0.135045 1.38266,-0.06573 2.0222,0.19917 0.63954,0.26491 1.18617,0.71351 1.57076,1.28909 C 9.79473,-13.06892 10,-12.39223 10,-11.7" />
    <path
       style="stroke:currentColor;stroke-width:1;stroke-linecap:round;stroke-linejoin:round"
       inkscape:connector-curvature="0"
       id="path64"
       d="M 6.5,0.8 H 1 v -2 C 1,-2.2609 1.42143,-3.2783 2.17157,-4.0284 2.92172,-4.7786 3.93913,-5.2 5,-5.2" />
    <path
       style="fill:currentColor"
       inkscape:connector-curvature="0"
       id="path66"
       d="m 19.5,-5.2 h -1.12 c -0.1128,-0.4919 -0.3086,-0.9609 -0.579,-1.387 l 0.8,-0.795 c 0.0937,-0.09376 0.1464,-0.22092 0.1464,-0.3535 0,-0.13258 -0.0527,-0.25974 -0.1464,-0.3535 l -0.707,-0.707 c -0.0938,-0.09374 -0.2209,-0.14639 -0.3535,-0.14639 -0.1326,0 -0.2597,0.05265 -0.3535,0.14639 l -0.795,0.8 C 15.9647,-8.26864 15.4939,-8.46616 15,-8.58 V -9.7 C 15,-9.83261 14.9473,-9.95979 14.8536,-10.05355 14.7598,-10.14732 14.6326,-10.2 14.5,-10.2 h -1 c -0.1326,0 -0.2598,0.05268 -0.3536,0.14645 C 13.0527,-9.95979 13,-9.83261 13,-9.7 v 1.12 c -0.4919,0.11283 -0.9609,0.30863 -1.387,0.579 l -0.795,-0.795 c -0.0938,-0.09374 -0.2209,-0.14639 -0.3535,-0.14639 -0.1326,0 -0.2597,0.05265 -0.3535,0.14639 l -0.707,0.707 c -0.09374,0.09376 -0.14639,0.22092 -0.14639,0.3535 0,0.13258 0.05265,0.25974 0.14639,0.3535 l 0.8,0.8 C 9.9324,-6.1578 9.73492,-5.6904 9.62,-5.2 H 8.5 C 8.36739,-5.2 8.24021,-5.1473 8.14645,-5.0536 8.05268,-4.9598 8,-4.8326 8,-4.7 v 1 c 0,0.1326 0.05268,0.2598 0.14645,0.3536 C 8.24021,-3.2527 8.36739,-3.2 8.5,-3.2 h 1.12 c 0.11283,0.4919 0.30863,0.9609 0.579,1.387 l -0.795,0.795 c -0.09374,0.0938 -0.14639,0.2209 -0.14639,0.3535 0,0.1326 0.05265,0.2597 0.14639,0.3535 l 0.707,0.707 c 0.0938,0.0937 0.2209,0.1464 0.3535,0.1464 0.1326,0 0.2597,-0.0527 0.3535,-0.1464 l 0.8,-0.8 C 12.0422,-0.1324 12.5096,0.0651 13,0.18 V 1.3 c 0,0.1326 0.0527,0.2598 0.1464,0.3536 C 13.2402,1.7473 13.3674,1.8 13.5,1.8 h 1 c 0.1326,0 0.2598,-0.0527 0.3536,-0.1464 C 14.9473,1.5598 15,1.4326 15,1.3 V 0.18 c 0.4919,-0.1128 0.9609,-0.3086 1.387,-0.579 l 0.795,0.8 c 0.0938,0.0937 0.2209,0.1464 0.3535,0.1464 0.1326,0 0.2597,-0.0527 0.3535,-0.1464 l 0.707,-0.707 c 0.0937,-0.0938 0.1464,-0.2209 0.1464,-0.3535 0,-0.1326 -0.0527,-0.2597 -0.1464,-0.3535 l -0.8,-0.795 c 0.2726,-0.4273 0.4702,-0.8981 0.584,-1.392 h 1.12 c 0.1326,0 0.2598,-0.0527 0.3536,-0.1464 C 19.9473,-3.4402 20,-3.5674 20,-3.7 v -1 C 20,-4.8326 19.9473,-4.9598 19.8536,-5.0536 19.7598,-5.1473 19.6326,-5.2 19.5,-5.2 Z M 14,-1.7 c -0.4945,0 -0.9778,-0.1466 -1.3889,-0.4213 -0.4111,-0.2747 -0.7316,-0.6652 -0.9208,-1.122 -0.1892,-0.4568 -0.2387,-0.9595 -0.1423,-1.4444 0.0965,-0.485 0.3346,-0.9304 0.6842,-1.2801 0.3497,-0.3496 0.7951,-0.5877 1.2801,-0.68416 0.4849,-0.09647 0.9876,-0.04696 1.4444,0.14226 0.4568,0.18922 0.8473,0.5097 1.122,0.9208 0.2747,0.4111 0.4213,0.8944 0.4213,1.3889 0,0.663 -0.2634,1.2989 -0.7322,1.7678 C 15.2989,-1.9634 14.663,-1.7 14,-1.7 Z" />
  </g>
</svg>
